<?xml version="1.0" encoding="UTF-8" standalone="no"?><!DOCTYPE svg PUBLIC "-//W3C//DTD SVG 1.1//EN" "http://www.w3.org/Graphics/SVG/1.1/DTD/svg11.dtd"><svg width="100%" height="100%" viewBox="0 0 24 24" version="1.1" xmlns="http://www.w3.org/2000/svg" xmlns:xlink="http://www.w3.org/1999/xlink" xml:space="preserve" xmlns:serif="http://www.serif.com/" style="fill-rule:evenodd;clip-rule:evenodd;stroke-linejoin:round;stroke-miterlimit:2;"><g id="Icon"><path d="M10.82,2.29c0.201,-0.475 0.667,-0.784 1.182,-0.784c0.516,0 0.982,0.309 1.183,0.784l2.394,5.66l6.029,0.846c0.499,0.07 0.911,0.424 1.053,0.907c0.143,0.483 -0.009,1.005 -0.39,1.334l-4.311,3.738l1.16,6.199c0.092,0.491 -0.109,0.99 -0.515,1.28c-0.406,0.291 -0.944,0.319 -1.378,0.074l-5.225,-2.949l-5.206,2.939c-0.438,0.247 -0.979,0.216 -1.385,-0.079c-0.407,-0.295 -0.604,-0.8 -0.505,-1.292l1.139,-5.668l-4.438,-4.276c-0.354,-0.341 -0.482,-0.854 -0.33,-1.321c0.151,-0.468 0.556,-0.807 1.043,-0.876l6.106,-0.856l2.394,-5.66Z"/></g></svg>