<?xml version="1.0" encoding="UTF-8"?>
<svg id="Capa_1" data-name="Capa 1" xmlns="http://www.w3.org/2000/svg" viewBox="0 0 20 20">
  <defs>
    <style>
      .cls-1 {
        fill: #606468;
        stroke-width: 0px;
      }
    </style>
  </defs>
  <path class="cls-1" d="m1,13h.12c.46.06.82.42.88.88v.12s0,4,0,4h4.12c.5.06.88.49.88,1s-.39.94-.88.99h-.12s-5,0-5,0h-.12c-.46-.06-.82-.42-.88-.88v-.12s0-5,0-5v-.12c.06-.46.42-.82.88-.88h.12Zm18,0c.51,0,.94.39.99.88v.12s0,5,0,5c0,.51-.39.94-.88.99h-.12s-5,0-5,0c-.55,0-1-.45-1-1,0-.51.39-.94.88-.99h.12s4,0,4,0v-4c0-.51.39-.94.88-.99h.12ZM6,0c.55,0,1,.45,1,1,0,.51-.39.94-.88.99h-.12s-4,0-4,0v4c0,.51-.39.94-.88.99h-.12c-.51,0-.94-.38-.99-.88v-.12s0-5,0-5C0,.49.39.06.88,0h.12s5,0,5,0Zm13,0h.12c.46.06.82.42.88.88v.12s0,5,0,5v.12c-.06.46-.42.82-.88.88h-.12s-.12,0-.12,0c-.46-.05-.82-.42-.88-.88v-.12s0-4,0-4h-4.12c-.5-.06-.88-.49-.88-1S13.39.06,13.88,0h.12s5,0,5,0Z"/>
</svg>