<?xml version="1.0" encoding="UTF-8"?>
<svg id="Capa_1" data-name="Capa 1" xmlns="http://www.w3.org/2000/svg" viewBox="0 0 24 24">
  <defs>
    <style>
      .cls-1 {
        fill: #606468;
        fill-rule: evenodd;
      }

      .cls-1, .cls-2 {
        stroke-width: 0px;
      }

      .cls-2 {
        fill: none;
      }
    </style>
  </defs>
  <g id="Icons">
    <g id="Rounded">
      <g id="AV">
        <g id="_-Round-_-AV-_-volume_up" data-name="-Round-/-AV-/-volume_up">
          <g>
            <rect id="Rectangle-Copy-86" class="cls-2" width="24" height="24"/>
            <path id="_Icon-Color" data-name="🔹Icon-Color" class="cls-1" d="m3,10v4c0,.55.45,1,1,1h3l3.29,3.29c.63.63,1.71.18,1.71-.71V6.41c0-.89-1.08-1.34-1.71-.71l-3.29,3.3h-3c-.55,0-1,.45-1,1Zm13.5,2c0-1.77-1.02-3.29-2.5-4.03v8.05c1.48-.73,2.5-2.25,2.5-4.02Zm-2.5-7.55v.2c0,.38.25.71.6.85,2.58,1.03,4.4,3.56,4.4,6.5s-1.82,5.47-4.4,6.5c-.36.14-.6.47-.6.85v.2c0,.63.63,1.07,1.21.85,3.39-1.29,5.79-4.56,5.79-8.4s-2.4-7.11-5.79-8.4c-.58-.23-1.21.22-1.21.85Z"/>
          </g>
        </g>
      </g>
    </g>
  </g>
</svg>